<svg width="20" height="21" viewBox="0 0 20 21" fill="none" xmlns="http://www.w3.org/2000/svg">
<mask id="mask0_538_1598" style="mask-type:alpha" maskUnits="userSpaceOnUse" x="0" y="0" width="20" height="21">
<rect y="0.5" width="20" height="20" fill="#D9D9D9"/>
</mask>
<g mask="url(#mask0_538_1598)">
<path d="M6.99996 14.6666L9.99996 11.6666L13 14.6666L14.1666 13.5L11.1666 10.5L14.1666 7.49996L13 6.33329L9.99996 9.33329L6.99996 6.33329L5.83329 7.49996L8.83329 10.5L5.83329 13.5L6.99996 14.6666ZM9.99996 18.8333C8.84718 18.8333 7.76385 18.6145 6.74996 18.177C5.73607 17.7395 4.85413 17.1458 4.10413 16.3958C3.35413 15.6458 2.76038 14.7638 2.32288 13.75C1.88538 12.7361 1.66663 11.6527 1.66663 10.5C1.66663 9.34718 1.88538 8.26385 2.32288 7.24996C2.76038 6.23607 3.35413 5.35413 4.10413 4.60413C4.85413 3.85413 5.73607 3.26038 6.74996 2.82288C7.76385 2.38538 8.84718 2.16663 9.99996 2.16663C11.1527 2.16663 12.2361 2.38538 13.25 2.82288C14.2638 3.26038 15.1458 3.85413 15.8958 4.60413C16.6458 5.35413 17.2395 6.23607 17.677 7.24996C18.1145 8.26385 18.3333 9.34718 18.3333 10.5C18.3333 11.6527 18.1145 12.7361 17.677 13.75C17.2395 14.7638 16.6458 15.6458 15.8958 16.3958C15.1458 17.1458 14.2638 17.7395 13.25 18.177C12.2361 18.6145 11.1527 18.8333 9.99996 18.8333Z" fill="#B9B9B9"/>
</g>
</svg>
