<svg width="35" height="35" viewBox="0 0 35 35" fill="none" xmlns="http://www.w3.org/2000/svg">
<path d="M17.4797 27.8441C18.0057 27.8441 18.45 27.6625 18.8125 27.2993C19.175 26.9362 19.3562 26.4916 19.3562 25.9656C19.3562 25.4396 19.1747 24.9954 18.8115 24.6329C18.4483 24.2704 18.0037 24.0891 17.4778 24.0891C16.9518 24.0891 16.5075 24.2707 16.145 24.6338C15.7825 24.997 15.6012 25.4416 15.6012 25.9676C15.6012 26.4936 15.7828 26.9378 16.146 27.3003C16.5092 27.6628 16.9538 27.8441 17.4797 27.8441ZM16.1751 21.248H18.7682C18.7918 20.3411 18.9247 19.6166 19.1667 19.0746C19.4088 18.5327 19.9963 17.8141 20.9291 16.919C21.7392 16.109 22.3597 15.3609 22.7907 14.6748C23.2217 13.9888 23.4372 13.1786 23.4372 12.2442C23.4372 10.6587 22.8675 9.42015 21.728 8.5286C20.5885 7.63708 19.2406 7.19132 17.6842 7.19132C16.1468 7.19132 14.8744 7.60167 13.8672 8.42236C12.8599 9.24302 12.1414 10.2095 11.7116 11.3218L14.0779 12.2712C14.3023 11.6595 14.6861 11.0638 15.2292 10.484C15.7724 9.90424 16.579 9.61434 17.6488 9.61434C18.7375 9.61434 19.5423 9.91252 20.063 10.5089C20.5838 11.1052 20.8442 11.7612 20.8442 12.4767C20.8442 13.1026 20.6658 13.6753 20.3092 14.1948C19.9526 14.7144 19.498 15.2163 18.9454 15.7004C17.7362 16.7915 16.9722 17.6618 16.6534 18.3113C16.3345 18.9607 16.1751 19.9396 16.1751 21.248ZM17.5031 35C15.0827 35 12.8076 34.5407 10.6779 33.6221C8.54813 32.7035 6.69555 31.4569 5.12014 29.8822C3.54471 28.3074 2.2975 26.4557 1.3785 24.3269C0.459499 22.1981 0 19.9235 0 17.5031C0 15.0827 0.4593 12.8076 1.3779 10.6779C2.2965 8.54813 3.54315 6.69555 5.11784 5.12014C6.69257 3.54471 8.54434 2.2975 10.6731 1.3785C12.8019 0.459499 15.0765 0 17.4969 0C19.9173 0 22.1924 0.459299 24.3221 1.3779C26.4519 2.2965 28.3045 3.54315 29.8799 5.11784C31.4553 6.69257 32.7025 8.54434 33.6215 10.6731C34.5405 12.8019 35 15.0765 35 17.4969C35 19.9173 34.5407 22.1924 33.6221 24.3221C32.7035 26.4519 31.4569 28.3045 29.8822 29.8799C28.3074 31.4553 26.4557 32.7025 24.3269 33.6215C22.1981 34.5405 19.9235 35 17.5031 35ZM17.5 32.2369C21.614 32.2369 25.0987 30.8092 27.954 27.954C30.8092 25.0987 32.2369 21.614 32.2369 17.5C32.2369 13.386 30.8092 9.9013 27.954 7.04602C25.0987 4.19075 21.614 2.76312 17.5 2.76312C13.386 2.76312 9.9013 4.19075 7.04602 7.04602C4.19075 9.9013 2.76312 13.386 2.76312 17.5C2.76312 21.614 4.19075 25.0987 7.04602 27.954C9.9013 30.8092 13.386 32.2369 17.5 32.2369Z" fill="black" fill-opacity="0.25"/>
</svg>
