<svg width="20" height="20" viewBox="0 0 20 20" fill="none" xmlns="http://www.w3.org/2000/svg">
<path d="M5 11.5C5.41667 11.5 5.77067 11.354 6.062 11.062C6.354 10.7707 6.5 10.4167 6.5 10C6.5 9.58333 6.354 9.22933 6.062 8.938C5.77067 8.646 5.41667 8.5 5 8.5C4.58333 8.5 4.22933 8.646 3.938 8.938C3.646 9.22933 3.5 9.58333 3.5 10C3.5 10.4167 3.646 10.7707 3.938 11.062C4.22933 11.354 4.58333 11.5 5 11.5ZM10 11.5C10.4167 11.5 10.7707 11.354 11.062 11.062C11.354 10.7707 11.5 10.4167 11.5 10C11.5 9.58333 11.354 9.22933 11.062 8.938C10.7707 8.646 10.4167 8.5 10 8.5C9.58333 8.5 9.22933 8.646 8.938 8.938C8.646 9.22933 8.5 9.58333 8.5 10C8.5 10.4167 8.646 10.7707 8.938 11.062C9.22933 11.354 9.58333 11.5 10 11.5ZM15 11.5C15.4167 11.5 15.7707 11.354 16.062 11.062C16.354 10.7707 16.5 10.4167 16.5 10C16.5 9.58333 16.354 9.22933 16.062 8.938C15.7707 8.646 15.4167 8.5 15 8.5C14.5833 8.5 14.2293 8.646 13.938 8.938C13.646 9.22933 13.5 9.58333 13.5 10C13.5 10.4167 13.646 10.7707 13.938 11.062C14.2293 11.354 14.5833 11.5 15 11.5ZM10 20C8.61667 20 7.31667 19.7373 6.1 19.212C4.88333 18.6873 3.825 17.975 2.925 17.075C2.025 16.175 1.31267 15.1167 0.788 13.9C0.262667 12.6833 0 11.3833 0 10C0 8.61667 0.262667 7.31667 0.788 6.1C1.31267 4.88333 2.025 3.825 2.925 2.925C3.825 2.025 4.88333 1.31233 6.1 0.787C7.31667 0.262333 8.61667 0 10 0C11.3833 0 12.6833 0.262333 13.9 0.787C15.1167 1.31233 16.175 2.025 17.075 2.925C17.975 3.825 18.6873 4.88333 19.212 6.1C19.7373 7.31667 20 8.61667 20 10C20 11.3833 19.7373 12.6833 19.212 13.9C18.6873 15.1167 17.975 16.175 17.075 17.075C16.175 17.975 15.1167 18.6873 13.9 19.212C12.6833 19.7373 11.3833 20 10 20ZM10 18C12.2333 18 14.125 17.225 15.675 15.675C17.225 14.125 18 12.2333 18 10C18 7.76667 17.225 5.875 15.675 4.325C14.125 2.775 12.2333 2 10 2C7.76667 2 5.875 2.775 4.325 4.325C2.775 5.875 2 7.76667 2 10C2 12.2333 2.775 14.125 4.325 15.675C5.875 17.225 7.76667 18 10 18Z" fill="#8A8A8A"/>
</svg>
