<svg width="20" height="21" viewBox="0 0 20 21" fill="none" xmlns="http://www.w3.org/2000/svg">
<path d="M18.4444 20.5L11.4444 13.5C10.8889 13.9444 10.25 14.2963 9.52778 14.5556C8.80556 14.8148 8.03704 14.9444 7.22222 14.9444C5.2037 14.9444 3.49556 14.2456 2.09778 12.8478C0.699259 11.4493 0 9.74074 0 7.72222C0 5.7037 0.699259 3.99519 2.09778 2.59667C3.49556 1.19889 5.2037 0.5 7.22222 0.5C9.24074 0.5 10.9493 1.19889 12.3478 2.59667C13.7456 3.99519 14.4444 5.7037 14.4444 7.72222C14.4444 8.53704 14.3148 9.30556 14.0556 10.0278C13.7963 10.75 13.4444 11.3889 13 11.9444L20 18.9444L18.4444 20.5ZM7.22222 12.7222C8.61111 12.7222 9.79185 12.2363 10.7644 11.2644C11.7363 10.2919 12.2222 9.11111 12.2222 7.72222C12.2222 6.33333 11.7363 5.15259 10.7644 4.18C9.79185 3.20815 8.61111 2.72222 7.22222 2.72222C5.83333 2.72222 4.65259 3.20815 3.68 4.18C2.70815 5.15259 2.22222 6.33333 2.22222 7.72222C2.22222 9.11111 2.70815 10.2919 3.68 11.2644C4.65259 12.2363 5.83333 12.7222 7.22222 12.7222Z" fill="#B9B9B9"/>
</svg>
