<svg width="443" height="628" viewBox="0 0 443 628" fill="none" xmlns="http://www.w3.org/2000/svg">
<path d="M295.95 244.25C295.95 244.25 297.51 167.24 300.34 154.37C305.53 130.8 327.5 131.2 341.49 130.4C355.48 129.6 377.04 134.39 382.24 158.36C387.43 182.33 387.03 269.01 387.03 269.01" fill="white"/>
<path d="M295.95 244.25C295.95 244.25 297.51 167.24 300.34 154.37C305.53 130.8 327.5 131.2 341.49 130.4C355.48 129.6 377.04 134.39 382.24 158.36C387.43 182.33 387.03 269.01 387.03 269.01" stroke="#031F43" stroke-width="2" stroke-miterlimit="10" stroke-linecap="round" stroke-linejoin="round"/>
<path d="M311.91 93.28C311.91 93.28 310.02 88.8 305.43 85.5C300.83 82.2 296.95 80.9 296.12 77.37C295.29 73.84 293.76 86.92 294.82 92.1C295.88 97.29 299.65 106.36 300.59 109.66C301.53 112.96 301.06 114.61 304.48 116.02C307.9 117.43 311.32 119.32 311.43 121.79C311.55 124.26 309.78 127.68 315.44 133.57C321.1 139.46 327.11 140.05 327.11 140.05C327.11 140.05 323.81 152.78 343.25 155.13C362.69 157.49 358.33 140.4 358.33 140.4C358.33 140.4 366.34 139.69 371.88 134.98C377.42 130.27 380.13 119.07 381.31 115.18C382.49 111.29 386.5 107.87 392.51 103.75C398.52 99.63 398.17 74.41 398.17 74.41C398.17 74.41 390.86 83.37 386.97 84.54C383.08 85.72 377.19 91.49 377.19 91.49C377.19 91.49 362.11 74.05 351.38 73.34C340.65 72.63 333.23 77.82 327.58 79.35C321.92 80.88 315.56 83.36 314.03 85.95C312.5 88.57 311.91 93.28 311.91 93.28Z" fill="white" stroke="#031F43" stroke-width="2" stroke-miterlimit="10" stroke-linecap="round" stroke-linejoin="round"/>
<path d="M329.63 132.78C337.224 132.78 343.38 126.624 343.38 119.03C343.38 111.436 337.224 105.28 329.63 105.28C322.036 105.28 315.88 111.436 315.88 119.03C315.88 126.624 322.036 132.78 329.63 132.78Z" fill="#45D62F" stroke="#031F43" stroke-width="2" stroke-linecap="round" stroke-linejoin="round"/>
<path d="M360.33 132.78C367.924 132.78 374.08 126.624 374.08 119.03C374.08 111.436 367.924 105.28 360.33 105.28C352.736 105.28 346.58 111.436 346.58 119.03C346.58 126.624 352.736 132.78 360.33 132.78Z" fill="#45D62F" stroke="#031F43" stroke-width="2" stroke-linecap="round" stroke-linejoin="round"/>
<path d="M374.04 180.08C374.04 180.08 366.35 168.17 356.74 169.47C347.13 170.77 339.32 180.04 338.16 195.54C337.65 202.41 341.77 220.78 341.77 220.78L343.45 215.56L345.9 222.18L346.42 217.6L349.9 224.69L351.1 219.24L353.6 224.33C353.6 224.33 353.05 212.94 353.53 205.24C354.01 197.54 354.82 192.34 354.82 192.34C354.82 192.34 356.02 197.44 356.38 200.4C356.74 203.36 357.77 214.42 357.77 214.42C357.77 214.42 359.58 204.36 360.09 197.74C360.46 192.94 359.98 180.14 359.98 180.14" fill="white"/>
<path d="M374.04 180.08C374.04 180.08 366.35 168.17 356.74 169.47C347.13 170.77 339.32 180.04 338.16 195.54C337.65 202.41 341.77 220.78 341.77 220.78L343.45 215.56L345.9 222.18L346.42 217.6L349.9 224.69L351.1 219.24L353.6 224.33C353.6 224.33 353.05 212.94 353.53 205.24C354.01 197.54 354.82 192.34 354.82 192.34C354.82 192.34 356.02 197.44 356.38 200.4C356.74 203.36 357.77 214.42 357.77 214.42C357.77 214.42 359.58 204.36 360.09 197.74C360.46 192.94 359.98 180.14 359.98 180.14" stroke="#031F43" stroke-width="2" stroke-miterlimit="10" stroke-linecap="round" stroke-linejoin="round"/>
<path d="M350.96 219.5C350.96 219.5 349.64 212.7 349.71 205.83C349.78 198.96 350.38 195.19 350.38 195.19" stroke="#031F43" stroke-width="2" stroke-miterlimit="10" stroke-linecap="round" stroke-linejoin="round"/>
<path d="M346.719 218.32C346.719 218.32 345.399 211.52 345.469 204.65C345.539 197.78 346.139 194.01 346.139 194.01" stroke="#031F43" stroke-width="2" stroke-miterlimit="10" stroke-linecap="round" stroke-linejoin="round"/>
<path d="M343.2 216.16C343.2 216.16 341.88 209.36 341.95 202.49C342.02 195.62 342.62 191.85 342.62 191.85" stroke="#031F43" stroke-width="2" stroke-miterlimit="10" stroke-linecap="round" stroke-linejoin="round"/>
<path d="M329.31 107.39C329.31 107.39 326.11 111.94 326.44 118.52C326.78 125.1 329.81 130.66 329.81 130.66C329.81 130.66 332.85 123.48 332.85 118.52C332.85 112.45 329.31 107.39 329.31 107.39Z" fill="#031F43"/>
<path d="M360 107.39C360 107.39 356.8 111.94 357.13 118.52C357.47 125.1 360.5 130.66 360.5 130.66C360.5 130.66 363.54 123.48 363.54 118.52C363.55 112.45 360 107.39 360 107.39Z" fill="#031F43"/>
<path d="M313.66 110.72C313.66 110.72 316.53 94.1899 332.89 94.1899" stroke="#031F43" stroke-width="2" stroke-miterlimit="10" stroke-linecap="round" stroke-linejoin="round"/>
<path d="M360.21 94.3601C360.21 94.3601 376.74 97.2301 376.74 113.59" stroke="#031F43" stroke-width="2" stroke-miterlimit="10" stroke-linecap="round" stroke-linejoin="round"/>
<path d="M338.48 136.37C338.48 136.37 342.31 127.37 344.89 127.37C347.48 127.37 350.27 136.37 350.27 136.37C350.27 136.37 347.58 134.72 344.79 134.72C342 134.71 338.48 136.37 338.48 136.37Z" fill="#031F43"/>
<path d="M333.531 144.14C332.861 144.62 331.821 146.06 332.591 147.43C333.251 148.61 334.251 150.46 338.331 148.98C344.331 146.81 349.271 150.72 353.001 148.98C355.841 147.66 355.681 145.34 354.721 144.43C353.581 143.34 350.071 142.46 348.821 140.91C347.571 139.36 347.131 136.85 344.321 136.8C341.221 136.75 339.821 141.32 337.961 142.15C336.101 142.98 334.651 143.34 333.531 144.14Z" stroke="#031F43" stroke-width="2" stroke-miterlimit="10" stroke-linecap="round" stroke-linejoin="round"/>
<path d="M333.63 144.14L336.47 147.38L337.03 142.47L333.63 144.14Z" stroke="#031F43" stroke-miterlimit="10" stroke-linecap="round" stroke-linejoin="round"/>
<path d="M337.38 141.97L340.14 145.42L340.52 139.6L337.38 141.97Z" stroke="#031F43" stroke-miterlimit="10" stroke-linecap="round" stroke-linejoin="round"/>
<path d="M341.3 138.13L343.79 142.69L345.38 137.06L341.3 138.13Z" stroke="#031F43" stroke-miterlimit="10" stroke-linecap="round" stroke-linejoin="round"/>
<path d="M345.891 138.52L346.841 144.34L348.521 140.15L345.891 138.52Z" stroke="#031F43" stroke-miterlimit="10" stroke-linecap="round" stroke-linejoin="round"/>
<path d="M348.95 141.75L349.81 146.87L352.42 142.93L348.95 141.75Z" stroke="#031F43" stroke-miterlimit="10" stroke-linecap="round" stroke-linejoin="round"/>
<path d="M318.271 131.5C318.271 131.5 322.461 135.88 330.031 136.52" stroke="#031F43" stroke-width="2" stroke-miterlimit="10" stroke-linecap="round" stroke-linejoin="round"/>
<path d="M354.01 134.33C354.01 134.33 359.75 136.88 364.4 134.79" stroke="#031F43" stroke-width="2" stroke-miterlimit="10" stroke-linecap="round" stroke-linejoin="round"/>
<path d="M303.891 89.8701C304.011 90.2201 309.551 98.3501 309.431 105.9" stroke="#031F43" stroke-width="2" stroke-miterlimit="10" stroke-linecap="round" stroke-linejoin="round"/>
<path d="M385.59 90.6699C385.47 91.0199 379.93 99.1499 380.05 106.7" stroke="#031F43" stroke-width="2" stroke-miterlimit="10" stroke-linecap="round" stroke-linejoin="round"/>
<path d="M319.25 209.79C319.25 209.79 326.82 197.91 336.28 199.21C345.73 200.51 353.42 209.75 354.57 225.21C355.08 232.06 351.01 250.38 351.01 250.38L349.36 245.17L346.95 251.77L346.44 247.2L343.02 254.28L341.84 248.84L339.38 253.92C339.38 253.92 339.92 242.56 339.45 234.88C338.98 227.2 338.18 222.02 338.18 222.02C338.18 222.02 337 227.1 336.64 230.06C336.29 233.01 335.27 244.04 335.27 244.04C335.27 244.04 333.49 234.01 332.98 227.41C332.61 222.62 333.09 209.86 333.09 209.86" fill="white"/>
<path d="M319.25 209.79C319.25 209.79 326.82 197.91 336.28 199.21C345.73 200.51 353.42 209.75 354.57 225.21C355.08 232.06 351.01 250.38 351.01 250.38L349.36 245.17L346.95 251.77L346.44 247.2L343.02 254.28L341.84 248.84L339.38 253.92C339.38 253.92 339.92 242.56 339.45 234.88C338.98 227.2 338.18 222.02 338.18 222.02C338.18 222.02 337 227.1 336.64 230.06C336.29 233.01 335.27 244.04 335.27 244.04C335.27 244.04 333.49 234.01 332.98 227.41C332.61 222.62 333.09 209.86 333.09 209.86" stroke="#031F43" stroke-width="2" stroke-miterlimit="10" stroke-linecap="round" stroke-linejoin="round"/>
<path d="M341.96 249.09C341.96 249.09 343.26 242.31 343.19 235.46C343.12 228.61 342.53 224.85 342.53 224.85" stroke="#031F43" stroke-width="2" stroke-miterlimit="10" stroke-linecap="round" stroke-linejoin="round"/>
<path d="M346.13 247.92C346.13 247.92 347.43 241.14 347.36 234.29C347.29 227.44 346.7 223.68 346.7 223.68" stroke="#031F43" stroke-width="2" stroke-miterlimit="10" stroke-linecap="round" stroke-linejoin="round"/>
<path d="M349.6 245.76C349.6 245.76 350.9 238.98 350.83 232.13C350.76 225.28 350.17 221.52 350.17 221.52" stroke="#031F43" stroke-width="2" stroke-miterlimit="10" stroke-linecap="round" stroke-linejoin="round"/>
<path d="M422.05 22.2801L267.08 2.8501V252.13L424.42 300.47L422.05 22.2801Z" stroke="#031F43" stroke-width="2" stroke-miterlimit="10" stroke-linecap="round" stroke-linejoin="round"/>
<path d="M285.09 22.75V242.18L404.52 276.3L405.47 37.71L285.09 22.75Z" stroke="#031F43" stroke-width="2" stroke-miterlimit="10" stroke-linecap="round" stroke-linejoin="round"/>
<path d="M343.75 31.5701L343.86 257.07" stroke="#031F43" stroke-width="4" stroke-miterlimit="10" stroke-linecap="round" stroke-linejoin="round"/>
<path d="M285.99 90.1802L389.35 111.37" stroke="#031F43" stroke-width="4" stroke-miterlimit="10" stroke-linecap="round" stroke-linejoin="round"/>
<path d="M287.44 183.02L389.35 204.26" stroke="#031F43" stroke-width="4" stroke-miterlimit="10" stroke-linecap="round" stroke-linejoin="round"/>
<path d="M381.35 0.680054L385.58 312.42C385.58 312.42 400.92 315.47 407.11 320.63C413.3 325.79 419.99 320.63 426.17 320.63C432.35 320.63 442.14 323.72 442.14 323.72L437.81 10.4901" fill="#A7CCE9"/>
<path d="M407.11 320.63V141.33" stroke="#031F43" stroke-width="2" stroke-miterlimit="10" stroke-linecap="round" stroke-linejoin="round"/>
<path d="M426.18 320.63V233.23" stroke="#031F43" stroke-width="2" stroke-miterlimit="10" stroke-linecap="round" stroke-linejoin="round"/>
<path d="M267.08 2.8501L285.09 22.7501" stroke="#031F43" stroke-width="2" stroke-miterlimit="10" stroke-linecap="round" stroke-linejoin="round"/>
<path d="M285.09 242.18L267.08 252.13" stroke="#031F43" stroke-width="2" stroke-miterlimit="10" stroke-linecap="round" stroke-linejoin="round"/>
<path d="M25.8198 508.14L28.1798 540.82L42.6998 548.38L59.7798 542.68V521.29L25.8198 508.14Z" fill="#347CE1" stroke="#031F43" stroke-width="2" stroke-miterlimit="10" stroke-linecap="round" stroke-linejoin="round"/>
<path d="M42.7002 548.38V516.97" stroke="#031F43" stroke-width="2" stroke-miterlimit="10" stroke-linecap="round" stroke-linejoin="round"/>
<path d="M220.17 586.63L222.52 617.06L237.05 626.87L259.41 616.16V580.9L220.17 586.63Z" fill="#347CE1" stroke="#031F43" stroke-width="2" stroke-miterlimit="10" stroke-linecap="round" stroke-linejoin="round"/>
<path d="M237.96 626.87L236.95 576.58" stroke="#031F43" stroke-width="2" stroke-miterlimit="10" stroke-linecap="round" stroke-linejoin="round"/>
<path d="M350.87 537.62L353.22 568.05L367.75 577.86L386.6 570.45V531.89L350.87 537.62Z" fill="#347CE1" stroke="#031F43" stroke-width="2" stroke-miterlimit="10" stroke-linecap="round" stroke-linejoin="round"/>
<path d="M367.75 577.86L365.89 527.9" stroke="#031F43" stroke-width="2" stroke-miterlimit="10" stroke-linecap="round" stroke-linejoin="round"/>
<path d="M388.13 536.49L216.05 597.9L21.74 509.48L0.699988 294.71C-1.21001 283 6.21 271.79 17.74 268.98L120.19 233.25C130.22 229.75 138.85 228.16 148.52 232.58L374.48 335.93C382.8 339.73 388.13 348.04 388.13 357.19V536.49Z" fill="#A7CCE9"/>
<path d="M383.4 342.54L345.68 356.98L148.77 253.88L41.19 288.15C31.69 291.18 25.78 300.65 27.26 310.52L41.93 474.01" stroke="#031F43" stroke-width="2" stroke-miterlimit="10" stroke-linecap="round" stroke-linejoin="round"/>
<path d="M345.68 356.99V464.03" stroke="#031F43" stroke-width="2" stroke-miterlimit="10" stroke-linecap="round" stroke-linejoin="round"/>
<path d="M388.04 480.73L216.62 547.63L41.74 474.45L39.21 444.93L156.62 396.82L388.04 480.73Z" stroke="#031F43" stroke-width="2" stroke-miterlimit="10" stroke-linecap="round" stroke-linejoin="round"/>
<path d="M95.5501 394.52C95.5501 394.52 74.9101 416.36 65.7301 412.48C56.5501 408.61 54.5101 379.26 60.9001 351.88C67.2901 324.5 96.4601 271.78 116.89 269.88C137.32 267.98 154.47 259.33 163.97 259.55C173.47 259.77 209.89 247.33 274.09 262.94C314.37 272.73 303.6 287.62 298.28 292.14C291.46 297.94 262.67 309.22 262.67 309.22L249.93 294.5C249.93 294.5 218.57 318.38 212.85 320.64C207.13 322.9 173.39 338.86 161.26 366.83C158.1 374.12 151.83 391.77 122.53 405.47C115.94 408.55 93.8601 410.33 93.8601 410.33L95.5501 394.52Z" fill="#236BF6"/>
<path d="M79.1799 408.85L119.65 372.46L109.62 348.67C109.62 348.67 85.2699 360.7 78.6099 365.84" stroke="#031F43" stroke-width="2" stroke-miterlimit="10" stroke-linecap="round" stroke-linejoin="round"/>
<path d="M225.79 470.34C225.79 470.34 226.2 479.44 232.04 491.17C237.88 502.9 259.65 520.01 259.86 521.54C260.06 523.06 258.54 527.12 256.98 527.65C255.43 528.18 252.1 527.89 252.1 527.89C252.1 527.89 250.43 529.75 248.91 529.95C247.39 530.15 245.81 529.01 245.81 529.01C245.81 529.01 243.96 531.02 242.44 531.23C240.92 531.44 239.66 530.48 239.66 530.48C239.66 530.48 240.22 531.7 238.52 532.05C236.82 532.4 226.12 522.6 219.59 518.84C213.05 515.09 208.84 513.55 206.57 508.83C204.3 504.11 210.61 498.97 209.51 490.51C208.41 482.04 205.36 472.91 205.36 472.91L225.79 470.34Z" fill="white" stroke="#031F43" stroke-width="2" stroke-miterlimit="10" stroke-linecap="round" stroke-linejoin="round"/>
<path d="M183.59 469.43C183.59 469.43 176.56 476.92 175.01 481.42C173.46 485.92 175.27 511.56 175.27 511.56C175.27 511.56 178.72 513.45 178.99 515.36C179.26 517.27 180.11 519.08 180.11 519.08C180.11 519.08 185.64 522.03 185.64 523.76C185.64 525.49 183.52 526.47 180.55 525.63C177.58 524.79 167.33 521.14 162.72 512.63C158.11 504.12 156.51 495.87 151.14 491.06C145.77 486.25 143.13 481.67 145.47 476.38C147.82 471.08 160.53 466.4 165.22 462.47C169.91 458.54 178.98 447.46 178.98 447.46L183.59 469.43Z" fill="white" stroke="#031F43" stroke-width="2" stroke-miterlimit="10" stroke-linecap="round" stroke-linejoin="round"/>
<path d="M233.36 288.89C233.24 288.16 230.63 272.56 230.63 272.56C230.63 272.56 219.53 282.71 213.76 289.71C208.29 296.35 203.51 301.47 203.24 308.68C202.97 315.89 233.36 288.89 233.36 288.89Z" fill="white" stroke="#031F43" stroke-width="2" stroke-miterlimit="10" stroke-linecap="round" stroke-linejoin="round"/>
<path d="M203.24 308.68C203.48 307.98 205.07 301.57 186.96 296C177.49 293.09 151.03 287.89 150.85 287.87C150.67 287.85 148.82 302.48 148.82 302.48L203.24 308.68Z" fill="white" stroke="#031F43" stroke-width="2" stroke-miterlimit="10" stroke-linecap="round" stroke-linejoin="round"/>
<path d="M166.91 272.06C183.081 272.06 196.19 258.852 196.19 242.56C196.19 226.268 183.081 213.06 166.91 213.06C150.739 213.06 137.63 226.268 137.63 242.56C137.63 258.852 150.739 272.06 166.91 272.06Z" fill="white"/>
<path d="M194.82 214.74C194.82 214.74 211.24 231.74 201.46 247.27C188.09 268.49 196.59 281.44 196.59 281.44C196.59 281.44 191.41 285.94 177.43 283.69C170.52 282.58 160.46 272.78 160.46 272.78C160.46 272.78 160.55 269.74 165.99 269.34C171.83 268.91 176 267.03 180.14 261.68C192.76 245.39 194.82 214.74 194.82 214.74Z" fill="#031F43"/>
<path d="M153.09 231.51C155.04 226.08 162.49 222.87 167.74 225.26C169.8 226.2 172.03 227.61 174.33 229.71C183.51 238.11 197.95 235.88 197.95 235.88C197.95 235.88 202.7 227.21 198.07 213.74C192.85 198.54 164.94 191.36 150.77 200.88C135.64 211.05 137.35 220.79 123.61 229.65C104.38 242.05 103.12 253.79 103.12 253.79C103.12 253.79 116.4 263.86 123.27 271.72C133.63 283.58 143 269.64 143 269.64L153.09 231.51Z" fill="#031F43"/>
<path d="M150.49 241.25C150.49 241.25 150.13 236.48 146.23 235.73C142.33 234.98 139.29 240.29 140.33 244.35C141.07 247.25 143.44 249.8 144.73 251.02C145.26 251.52 145.5 252.25 145.37 252.97L142.67 267.85C141.8 272.65 144.49 277.4 149.08 279.07C150.25 279.49 151.54 279.87 152.95 280.15C153.96 280.35 155 280.47 156.01 280.54C160.68 280.83 164.89 277.71 166.14 273.2C166.51 271.87 168.12 269.9 166.74 269.95C156.6 270.3 154.24 263.36 154.36 263.08" fill="white"/>
<path d="M150.49 241.25C150.49 241.25 150.13 236.48 146.23 235.73C142.33 234.98 139.29 240.29 140.33 244.35C141.07 247.25 143.44 249.8 144.73 251.02C145.26 251.52 145.5 252.25 145.37 252.97L142.67 267.85C141.8 272.65 144.49 277.4 149.08 279.07C150.25 279.49 151.54 279.87 152.95 280.15C153.96 280.35 155 280.47 156.01 280.54C160.68 280.83 164.89 277.71 166.14 273.2C166.51 271.87 168.12 269.9 166.74 269.95C156.6 270.3 154.24 263.36 154.36 263.08" stroke="#031F43" stroke-width="2" stroke-miterlimit="10" stroke-linecap="round" stroke-linejoin="round"/>
<path d="M174.901 245.91C174.521 248.11 174.131 252.56 174.131 252.56C174.131 252.56 170.431 253.15 168.851 251.41" stroke="#031F43" stroke-width="2" stroke-miterlimit="10" stroke-linecap="round" stroke-linejoin="round"/>
<path d="M164.43 237.68C164.43 237.68 165.43 240.66 169.45 240.27" stroke="#031F43" stroke-width="2" stroke-miterlimit="10" stroke-linecap="round" stroke-linejoin="round"/>
<path d="M179.3 243.53C179.3 243.53 180.62 246.38 184.58 245.55" stroke="#031F43" stroke-width="2" stroke-miterlimit="10" stroke-linecap="round" stroke-linejoin="round"/>
<path d="M162.601 255.14L172.581 259.26C172.581 259.26 170.071 263.51 165.571 261.71C161.151 259.93 162.601 255.14 162.601 255.14Z" stroke="#031F43" stroke-width="2" stroke-miterlimit="10" stroke-linecap="round" stroke-linejoin="round"/>
<path d="M165.451 246.66C169.968 246.66 173.631 242.998 173.631 238.48C173.631 233.962 169.968 230.3 165.451 230.3C160.933 230.3 157.271 233.962 157.271 238.48C157.271 242.998 160.933 246.66 165.451 246.66Z" stroke="#031F43" stroke-width="2" stroke-miterlimit="10" stroke-linecap="round" stroke-linejoin="round"/>
<path d="M183.88 252.98C188.398 252.98 192.06 249.318 192.06 244.8C192.06 240.282 188.398 236.62 183.88 236.62C179.362 236.62 175.7 240.282 175.7 244.8C175.7 249.318 179.362 252.98 183.88 252.98Z" stroke="#031F43" stroke-width="2" stroke-miterlimit="10" stroke-linecap="round" stroke-linejoin="round"/>
<path d="M137.66 293.72C138.18 293.95 199.97 304.77 199.97 304.77L209.82 303.82L243.07 270.93L241.6 345.65L208.89 374.43L135.43 368.91L137.66 293.72Z" fill="#F3B63F"/>
<path d="M209.81 303.83L208.88 374.44L198.23 374.23L199.97 304.78L209.81 303.83Z" stroke="#031F43" stroke-width="2" stroke-miterlimit="10" stroke-linecap="round" stroke-linejoin="round"/>
<path d="M250.36 294.74C246.11 295.33 241.11 296.16 238 297.11C234.89 298.06 228.92 298.25 228.13 299.21C227.34 300.17 229.1 302.03 230.53 302.42C231.96 302.81 235.48 302.31 235.48 302.31C235.48 302.31 223.41 317.28 222.91 319.56C222.4 321.85 223.75 323.09 223.75 323.09C223.75 323.09 222.4 325.94 223.27 327.7C224.13 329.45 226.7 328.37 226.7 328.37C226.7 328.37 227.4 329.93 228.89 330.3C230.38 330.67 231.42 329.75 231.42 329.75C231.42 329.75 233.52 330.42 234.87 330.25C236.22 330.08 248.72 320.55 252.33 315.8C255.94 311.05 257.8 307.33 260.05 305.61" fill="white"/>
<path d="M250.36 294.74C246.11 295.33 241.11 296.16 238 297.11C234.89 298.06 228.92 298.25 228.13 299.21C227.34 300.17 229.1 302.03 230.53 302.42C231.96 302.81 235.48 302.31 235.48 302.31C235.48 302.31 223.41 317.28 222.91 319.56C222.4 321.85 223.75 323.09 223.75 323.09C223.75 323.09 222.4 325.94 223.27 327.7C224.13 329.45 226.7 328.37 226.7 328.37C226.7 328.37 227.4 329.93 228.89 330.3C230.38 330.67 231.42 329.75 231.42 329.75C231.42 329.75 233.52 330.42 234.87 330.25C236.22 330.08 248.72 320.55 252.33 315.8C255.94 311.05 257.8 307.33 260.05 305.61" stroke="#031F43" stroke-width="2" stroke-linecap="round" stroke-linejoin="round"/>
<path d="M223.74 323.1L234.68 311.43" stroke="#031F43" stroke-width="2" stroke-linecap="round" stroke-linejoin="round"/>
<path d="M226.6 328.29L237.55 316.62" stroke="#031F43" stroke-width="2" stroke-linecap="round" stroke-linejoin="round"/>
<path d="M231.22 329.93L242.16 318.26" stroke="#031F43" stroke-width="2" stroke-linecap="round" stroke-linejoin="round"/>
<path d="M125.3 331.59C125.3 331.59 125.64 327.69 124.45 327.05C123.26 326.41 117.68 324.85 116.2 325.44C114.72 326.02 112.94 332.12 112.09 333.65C111.24 335.18 116.38 344.98 116.07 348.52C115.76 352.06 111.3 352.19 111.3 352.19C111.3 352.19 119 369.91 119.26 369.91C124.51 369.91 138.76 359.47 143.82 354.74C148.88 350 154.92 345.56 155.28 343.45C155.64 341.34 154.03 339.39 154.03 339.39C154.03 339.39 156.18 337.1 155.49 335.49C154.38 332.9 150.62 332.67 150.62 332.67C150.62 332.67 153.11 330.15 151.67 328.24C150.23 326.33 146.77 327.05 146.77 327.05C146.77 327.05 146.44 323.39 144.07 323.24C141.22 323.06 131.93 327.36 129.63 329.12C127.32 330.87 125.3 331.59 125.3 331.59Z" fill="white" stroke="#031F43" stroke-width="2" stroke-miterlimit="10" stroke-linecap="round" stroke-linejoin="round"/>
<path d="M146.76 327.04C146.76 327.04 142.55 329.03 138.92 330.97C135.29 332.91 129.89 336.83 129.89 336.83" stroke="#031F43" stroke-width="2" stroke-miterlimit="10" stroke-linecap="round" stroke-linejoin="round"/>
<path d="M150.66 332.7C150.66 332.7 146.45 334.69 142.82 336.63C139.19 338.57 133.79 342.49 133.79 342.49" stroke="#031F43" stroke-width="2" stroke-miterlimit="10" stroke-linecap="round" stroke-linejoin="round"/>
<path d="M154.41 338.49C154.41 338.49 150.2 340.48 146.57 342.42C142.94 344.36 137.54 348.28 137.54 348.28" stroke="#031F43" stroke-width="2" stroke-miterlimit="10" stroke-linecap="round" stroke-linejoin="round"/>
<path d="M125.3 331.59C125.3 331.59 121.74 334.26 120.15 334.12C118.56 333.98 117.28 333.47 117.28 333.47" stroke="#031F43" stroke-width="2" stroke-miterlimit="10" stroke-linecap="round" stroke-linejoin="round"/>
<path d="M211.63 357.66C211.63 357.66 269.28 345.58 288.96 368.27C308.64 390.95 185.69 474.52 185.69 474.52L168.05 448.52L208.11 405.91L211.63 357.66Z" fill="#347CE1" stroke="#031F43" stroke-width="2" stroke-miterlimit="10" stroke-linecap="round" stroke-linejoin="round"/>
<path d="M226.2 394.37C226.26 393.69 234.4 386.44 234.4 386.44" stroke="#031F43" stroke-width="2" stroke-miterlimit="10" stroke-linecap="round" stroke-linejoin="round"/>
<path d="M93.86 410.34C93.86 410.34 177.21 315.87 205 333.68C232.79 351.48 233.8 471.74 233.8 471.74L202.54 489.62C202.54 489.62 187.51 461.76 182.68 441.07C177.85 420.38 177.34 410.21 177.34 410.21C177.34 410.21 163.27 451.25 144.72 463.6C126.17 475.95 109.19 464.86 101.87 454.26C91.71 439.56 93.86 410.34 93.86 410.34Z" fill="#347CE1" stroke="#031F43" stroke-width="2" stroke-miterlimit="10" stroke-linecap="round" stroke-linejoin="round"/>
<path d="M177.34 410.21C177.34 410.21 176.52 399.66 175.22 390.46" stroke="#031F43" stroke-width="2" stroke-miterlimit="10" stroke-linecap="round" stroke-linejoin="round"/>
<path d="M251.47 293.33L272.67 279.64" stroke="#031F43" stroke-width="2" stroke-miterlimit="10" stroke-linecap="round" stroke-linejoin="round"/>
<path d="M148.39 78.32C155.586 78.32 161.42 67.5973 161.42 54.37C161.42 41.1428 155.586 30.42 148.39 30.42C141.194 30.42 135.36 41.1428 135.36 54.37C135.36 67.5973 141.194 78.32 148.39 78.32Z" fill="#F3B63F"/>
<path d="M170.609 94.18H198.139L191.939 40.23C191.519 36.62 188.469 33.89 184.829 33.89C181.239 33.89 178.199 36.55 177.729 40.11L170.609 94.18Z" fill="#F3B63F"/>
<path d="M175.81 53.99H151.99" stroke="#031F43" stroke-width="2" stroke-miterlimit="10" stroke-linecap="round" stroke-linejoin="round"/>
<path d="M199.6 100.35L250.27 239.14" stroke="#031F43" stroke-width="2" stroke-miterlimit="10" stroke-linecap="round" stroke-linejoin="round"/>
<path d="M168.27 99.8601L131.53 200.39" stroke="#031F43" stroke-width="2" stroke-miterlimit="10" stroke-linecap="round" stroke-linejoin="round"/>
<path d="M191.42 109.39L204.97 207.42" stroke="#031F43" stroke-width="2" stroke-miterlimit="10" stroke-linecap="round" stroke-linejoin="round"/>
</svg>
