<svg width="404" height="460" viewBox="0 0 404 460" fill="none" xmlns="http://www.w3.org/2000/svg">
<path d="M131.43 36.28C131.43 36.28 131.21 42.07 132.75 44.47C134.29 46.87 136.42 49.62 138.01 48.87C140.67 47.6 145.41 49.61 144.86 52.23C144.31 54.85 138.7 55.72 138.59 56.6C138.48 57.47 137.93 59.55 138.81 59.98C139.69 60.42 144.97 62.27 149.05 62.6C153.12 62.93 152.9 68.93 152.9 68.93L159.28 69.26C159.28 69.26 162.58 54.63 161.7 50.05C160.82 45.47 157.19 40.44 152.24 38.15C147.29 35.86 131.43 36.28 131.43 36.28Z" fill="white" stroke="black" stroke-width="2" stroke-miterlimit="10" stroke-linecap="round" stroke-linejoin="round"/>
<path d="M57.44 223.92C57.44 223.92 65.29 227.93 68.29 228.62C71.29 229.31 77.18 228.16 79.95 230.22C82.72 232.28 83.64 236.29 83.64 236.29C83.64 236.29 78.33 241.56 70.83 242.13C63.33 242.7 50.4 242.93 50.4 242.93L48.78 244.65L32.27 244.76L34.46 229.41L57.44 223.92Z" fill="white" stroke="black" stroke-width="2" stroke-miterlimit="10" stroke-linecap="round" stroke-linejoin="round"/>
<path d="M60.8999 225.53C60.8999 225.53 58.9399 226.9 57.6699 229.31L60.8999 225.53Z" fill="white"/>
<path d="M60.8999 225.53C60.8999 225.53 58.9399 226.9 57.6699 229.31" stroke="black" stroke-width="2" stroke-miterlimit="10" stroke-linecap="round" stroke-linejoin="round"/>
<path d="M63.5601 226.9C63.5601 226.9 61.6001 228.27 60.3301 230.68L63.5601 226.9Z" fill="white"/>
<path d="M63.5601 226.9C63.5601 226.9 61.6001 228.27 60.3301 230.68" stroke="black" stroke-width="2" stroke-miterlimit="10" stroke-linecap="round" stroke-linejoin="round"/>
<path d="M66.5601 228.05C66.5601 228.05 64.6001 229.42 63.3301 231.83L66.5601 228.05Z" fill="white"/>
<path d="M66.5601 228.05C66.5601 228.05 64.6001 229.42 63.3301 231.83" stroke="black" stroke-width="2" stroke-miterlimit="10" stroke-linecap="round" stroke-linejoin="round"/>
<path d="M49.3802 96.25C49.3802 96.25 57.0401 148.69 57.0401 156.68C57.0401 164.66 57.8102 206.84 58.0002 212.73C58.1902 218.62 60.6801 225.27 60.6801 225.27C60.6801 225.27 44.7802 234.96 43.2502 235.15C41.7202 235.34 36.1602 232.68 36.1602 232.68L49.3802 96.25Z" fill="white" stroke="black" stroke-width="2" stroke-miterlimit="10" stroke-linecap="round" stroke-linejoin="round"/>
<path d="M215.66 69.98L220.09 60.76L146.08 4.23999L116.35 29.97L93.9199 74.63L215.66 69.98Z" stroke="black" stroke-width="2" stroke-miterlimit="10" stroke-linecap="round" stroke-linejoin="round"/>
<path d="M211.2 69.57L148.26 19.28" stroke="black" stroke-width="2" stroke-miterlimit="10" stroke-linecap="round" stroke-linejoin="round"/>
<path d="M137.58 34.5099C137.58 34.5099 150.79 29.4199 152.17 27.0799C153.55 24.7399 158.68 12.0199 158.68 10.8399C158.68 9.65992 156.91 8.29993 156.91 8.29993C156.91 8.29993 156.32 5.16993 155.53 4.77993C154.74 4.38993 150.4 3.20993 150.4 3.20993C150.4 3.20993 148.03 1.05993 146.46 1.24993C144.88 1.44993 138.18 6.91992 137.78 8.48992C137.39 10.0599 136.99 19.2499 136.79 20.0299C136.59 20.8099 132.65 22.9599 132.65 22.9599" fill="white"/>
<path d="M137.58 34.5099C137.58 34.5099 150.79 29.4199 152.17 27.0799C153.55 24.7399 158.68 12.0199 158.68 10.8399C158.68 9.65992 156.91 8.29993 156.91 8.29993C156.91 8.29993 156.32 5.16993 155.53 4.77993C154.74 4.38993 150.4 3.20993 150.4 3.20993C150.4 3.20993 148.03 1.05993 146.46 1.24993C144.88 1.44993 138.18 6.91992 137.78 8.48992C137.39 10.0599 136.99 19.2499 136.79 20.0299C136.59 20.8099 132.65 22.9599 132.65 22.9599" stroke="black" stroke-width="2" stroke-miterlimit="10" stroke-linecap="round" stroke-linejoin="round"/>
<path d="M136.6 37.64C136.6 37.64 137.78 32.16 135.61 28.64C133.44 25.12 130.48 21.21 130.48 21.21C130.48 21.21 122.39 23.95 120.82 23.75C119.24 23.55 105.04 17.49 99.32 17.49C93.6 17.49 64.61 22.19 57.91 24.14C51.2 26.1 35.82 31.57 30.5 37.25C25.18 42.93 16.5 52.9 16.5 52.9C16.5 52.9 33.07 56.42 36.42 59.36C39.77 62.29 47.46 72.27 48.25 75.79C49.04 79.31 52.59 86.35 52.59 86.35C52.59 86.35 57.32 89.48 64.23 90.07C71.13 90.66 83.16 84.4 86.91 80.88C90.66 77.36 104.26 69.73 108.8 64.45C113.34 59.17 119.25 50.76 120.83 48.21C122.41 45.67 125.17 41.56 125.17 41.56L136.6 37.64Z" fill="white" stroke="black" stroke-width="2" stroke-miterlimit="10" stroke-linecap="round" stroke-linejoin="round"/>
<path d="M120.82 23.7499L125.16 41.5499C125.75 40.5699 103.47 53.4799 98.1405 53.8799C92.8205 54.2699 85.5205 46.6399 85.3205 41.5499C85.1205 36.4599 87.0905 29.6199 91.0405 26.0899C94.9905 22.5599 100.7 20.4199 100.7 20.4199" fill="white"/>
<path d="M120.82 23.7499L125.16 41.5499C125.75 40.5699 103.47 53.4799 98.1405 53.8799C92.8205 54.2699 85.5205 46.6399 85.3205 41.5499C85.1205 36.4599 87.0905 29.6199 91.0405 26.0899C94.9905 22.5599 100.7 20.4199 100.7 20.4199" stroke="black" stroke-width="2" stroke-miterlimit="10" stroke-linecap="round" stroke-linejoin="round"/>
<path d="M150.4 3.20996L144.29 8.67996" stroke="black" stroke-width="2" stroke-miterlimit="10" stroke-linecap="round" stroke-linejoin="round"/>
<path d="M154.94 5.5498L148.83 11.0298" stroke="black" stroke-width="2" stroke-miterlimit="10" stroke-linecap="round" stroke-linejoin="round"/>
<path d="M157.11 9.85986L151 15.3399" stroke="black" stroke-width="2" stroke-miterlimit="10" stroke-linecap="round" stroke-linejoin="round"/>
<path d="M15.55 53.26C15.14 53.4 11.42 59.13 11.42 59.13C11.42 59.13 0.780016 67.81 1.96002 86.79C3.14002 105.77 10.79 160.11 10.79 165.66C10.79 171.21 7.26001 192.24 8.14001 206.55C9.02001 220.86 8.14001 265.55 8.14001 265.55C8.14001 265.55 22.37 266.12 26.4 265.17C30.42 264.22 40.77 259.47 40.77 259.47L37.32 246.74L41.34 222.8C41.34 222.8 43.64 178.72 44.02 177.01C44.4 175.3 45.55 168.84 45.94 163.52C46.32 158.2 49.2 130.27 49.58 115.83C49.96 101.39 52.59 86.36 52.59 86.36C52.59 86.36 53.79 71.36 46.71 62.62C39.61 53.87 15.55 53.26 15.55 53.26Z" fill="white" stroke="black" stroke-width="2" stroke-miterlimit="10" stroke-linecap="round" stroke-linejoin="round"/>
<path d="M39.1201 257.59C39.1201 257.59 49.0501 267.67 51.1301 269.16C53.2101 270.65 63.7101 271.34 66.0201 273.4C68.3301 275.46 69.2501 278.55 69.2501 278.55C69.2501 278.55 65.4401 285.42 63.8201 286.11C62.2001 286.8 40.1501 287.37 36.4601 286.22C32.7701 285.07 25.1501 281.3 23.6501 281.3C22.1501 281.3 21.8001 282.45 21.8001 282.45L9.10012 279.82C9.10012 279.82 8.41012 265.16 9.10012 262.64C9.79012 260.11 39.1201 257.59 39.1201 257.59Z" fill="white" stroke="black" stroke-width="2" stroke-miterlimit="10" stroke-linecap="round" stroke-linejoin="round"/>
<path d="M36.46 266.64C36.46 266.64 39.2299 263.43 42.2299 262.75L36.46 266.64Z" fill="white"/>
<path d="M36.46 266.64C36.46 266.64 39.2299 263.43 42.2299 262.75" stroke="black" stroke-width="2" stroke-miterlimit="10" stroke-linecap="round" stroke-linejoin="round"/>
<path d="M39.9199 268.82C39.9199 268.82 42.6899 265.61 45.6899 264.93L39.9199 268.82Z" fill="white"/>
<path d="M39.9199 268.82C39.9199 268.82 42.6899 265.61 45.6899 264.93" stroke="black" stroke-width="2" stroke-miterlimit="10" stroke-linecap="round" stroke-linejoin="round"/>
<path d="M42.3501 271.11C42.3501 271.11 45.1201 267.9 48.1201 267.22L42.3501 271.11Z" fill="white"/>
<path d="M42.3501 271.11C42.3501 271.11 45.1201 267.9 48.1201 267.22" stroke="black" stroke-width="2" stroke-miterlimit="10" stroke-linecap="round" stroke-linejoin="round"/>
<path d="M27.5898 72.2998C27.5898 72.2998 33.1998 75.8498 33.1998 82.4998C33.1998 89.1498 30.7099 93.4698 30.7099 93.4698" fill="white"/>
<path d="M27.5898 72.2998C27.5898 72.2998 33.1998 75.8498 33.1998 82.4998C33.1998 89.1498 30.7099 93.4698 30.7099 93.4698" stroke="black" stroke-width="2" stroke-miterlimit="10" stroke-linecap="round" stroke-linejoin="round"/>
<path d="M11.4199 59.1299C11.4199 59.1299 32.5699 64.7299 38.1799 68.1299C43.7899 71.5299 48.9299 77.7099 48.9299 77.7099" fill="white"/>
<path d="M11.4199 59.1299C11.4199 59.1299 32.5699 64.7299 38.1799 68.1299C43.7899 71.5299 48.9299 77.7099 48.9299 77.7099" stroke="black" stroke-width="2" stroke-miterlimit="10" stroke-linecap="round" stroke-linejoin="round"/>
<path d="M113.17 59.7499L118.67 59.6399C118.67 59.6399 116.8 63.4599 116.91 65.8599C117.02 68.2599 117.29 68.5599 117.29 68.5599" stroke="black" stroke-width="2" stroke-miterlimit="10" stroke-linecap="round" stroke-linejoin="round"/>
<path d="M98.3295 72.9L109.79 69.29L215.66 69.98V268.42H104.73L88.8995 237.85L88.3495 86.66L85.7695 81.94L98.3295 72.9Z" fill="white" stroke="black" stroke-width="2" stroke-miterlimit="10" stroke-linecap="round" stroke-linejoin="round"/>
<path d="M88.3496 86.6599L111.03 92.4899L182.29 92.6599L206.44 100.47V262.35" fill="white"/>
<path d="M88.3496 86.6599L111.03 92.4899L182.29 92.6599L206.44 100.47V262.35" stroke="black" stroke-width="2" stroke-miterlimit="10" stroke-linecap="round" stroke-linejoin="round"/>
<path d="M104.73 268.42V101.27L206.44 100.47" fill="white"/>
<path d="M104.73 268.42V101.27L206.44 100.47" stroke="black" stroke-width="2" stroke-miterlimit="10" stroke-linecap="round" stroke-linejoin="round"/>
<path d="M104.73 101.27L88.6602 95.5498" stroke="black" stroke-width="2" stroke-miterlimit="10" stroke-linecap="round" stroke-linejoin="round"/>
<path d="M181.02 127.24L193.23 108.96L128.21 109.18L121.11 127.68L181.02 127.24Z" fill="white" stroke="black" stroke-width="2" stroke-miterlimit="10" stroke-linecap="round" stroke-linejoin="round"/>
<path d="M115.51 197.47V158.29H142.14L145.92 150.8H184.53L179.87 158.29H194.52V195.75" fill="white"/>
<path d="M115.51 197.47V158.29H142.14L145.92 150.8H184.53L179.87 158.29H194.52V195.75" stroke="black" stroke-width="2" stroke-miterlimit="10" stroke-linecap="round" stroke-linejoin="round"/>
<path d="M119.95 197.16V176.56H189.85V195.75" stroke="black" stroke-width="2" stroke-miterlimit="10" stroke-linecap="round" stroke-linejoin="round"/>
<path d="M111.94 268.19V108.57H201.19V262.03" stroke="black" stroke-width="2" stroke-miterlimit="10" stroke-linecap="round" stroke-linejoin="round"/>
<path d="M89.0596 197.63L104.94 219.91L111.88 220.46" stroke="black" stroke-width="2" stroke-miterlimit="10" stroke-linecap="round" stroke-linejoin="round"/>
<path d="M206.06 196.09L105.97 197.85L88.8799 180.3" stroke="black" stroke-width="2" stroke-miterlimit="10" stroke-linecap="round" stroke-linejoin="round"/>
<path d="M109.79 69.29L110.69 91.5201" stroke="black" stroke-width="2" stroke-miterlimit="10" stroke-linecap="round" stroke-linejoin="round"/>
<path d="M211.531 356.21L194.431 392.48C194.431 392.48 204.111 401.75 210.501 400.93C216.891 400.11 225.751 394.13 225.751 394.13L232.961 364.25L211.531 356.21Z" fill="white" stroke="#031F43" stroke-width="2" stroke-miterlimit="10" stroke-linecap="round" stroke-linejoin="round"/>
<path d="M226.57 386.91C226.57 386.91 233.99 416.58 232.75 417.61C231.51 418.64 222.65 419.67 221.21 419.88C219.77 420.09 198.54 417.82 195.45 417.61C192.36 417.4 175.46 418.64 170.72 416.99C165.98 415.34 157.74 408.13 156.5 406.27C155.26 404.42 160.21 401.74 162.48 400.29C164.75 398.85 180.45 396.08 184.57 392.78C188.69 389.48 192.15 382.5 193.5 378.95C195.23 374.41 198.95 373.3 200.19 372.89C201.43 372.48 202.25 379.48 202.25 379.48L197.92 387.52C197.92 387.52 203.07 391.44 207.81 393.7C212.55 395.97 218.73 393.49 218.73 393.49L226.57 386.91Z" fill="#45D62F" stroke="#031F43" stroke-width="2" stroke-linecap="round" stroke-linejoin="round"/>
<path d="M391.361 448.73C391.361 448.73 375.221 313.55 371.141 305.02C367.681 297.79 337.641 298.43 327.761 300.57C317.881 302.71 317.401 316.3 315.001 325.64C312.601 334.99 289.101 438.32 289.101 438.32" stroke="#031F43" stroke-width="8" stroke-miterlimit="10" stroke-linecap="round" stroke-linejoin="round"/>
<path d="M301.4 386.95L384.39 395.84L357.07 371.08L301.4 386.95Z" stroke="#031F43" stroke-width="8" stroke-miterlimit="10" stroke-linecap="round" stroke-linejoin="round"/>
<path d="M352.23 304.29L358.79 419.36" stroke="#031F43" stroke-width="8" stroke-miterlimit="10" stroke-linecap="round" stroke-linejoin="round"/>
<path d="M295.791 367.59C295.791 367.59 311.681 392.89 312.331 395.51C312.991 398.13 316.121 401.69 310.541 402.67C304.971 403.65 282.831 394.14 282.831 394.14L276.271 373.65L295.791 367.59Z" fill="white" stroke="#031F43" stroke-width="2" stroke-miterlimit="10" stroke-linecap="round" stroke-linejoin="round"/>
<path d="M288.741 391.03C288.741 391.03 289.071 383.82 285.951 382.67C282.831 381.52 276.281 379.23 275.621 380.7C274.961 382.18 274.311 392.5 273.321 394.31C272.341 396.11 252.331 411.85 250.201 412.34C248.071 412.83 242.491 417.26 242.821 420.7C243.151 424.14 247.741 427.59 256.431 428.08C265.121 428.57 281.351 428.9 287.091 426.28C292.831 423.66 295.781 423.33 299.061 422.67C302.341 422.01 318.571 421.03 321.691 418.9C324.811 416.77 325.791 415.29 325.791 415.29C325.791 415.29 321.361 403.98 319.891 399.88C318.411 395.78 313.501 386.76 313.501 386.76C313.501 386.76 315.141 394.14 311.701 394.79C308.261 395.45 303.671 390.69 298.911 390.36C294.151 390.05 288.741 391.03 288.741 391.03Z" fill="#45D62F" stroke="#031F43" stroke-width="2" stroke-linecap="round" stroke-linejoin="round"/>
<path d="M347.44 309.09C366.24 309.09 381.48 305.862 381.48 301.88C381.48 297.898 366.24 294.67 347.44 294.67C328.641 294.67 313.4 297.898 313.4 301.88C313.4 305.862 328.641 309.09 347.44 309.09Z" fill="#031F43"/>
<path d="M295.931 260.22C295.931 260.22 235.051 268.28 231.721 273.56C228.381 278.84 218.931 319.43 215.601 328.32C212.271 337.21 205.591 353.06 205.591 353.06C205.591 353.06 208.931 360.57 216.991 362.23C225.051 363.9 232.561 368.62 232.561 368.62C232.561 368.62 254.241 317.47 256.741 311.91C259.241 306.35 306.781 283 306.781 283L295.931 260.22Z" fill="#4D4F51" stroke="#031F43" stroke-width="2" stroke-miterlimit="10" stroke-linecap="round" stroke-linejoin="round"/>
<path d="M385.16 296.77C390.36 296.31 345.58 306.81 312.89 311.09C296.94 313.18 272.31 312.76 270.92 313.59C269.53 314.42 270.09 312.76 269.53 314.42C268.97 316.09 297.61 368.63 297.61 368.63C297.61 368.63 295.66 375.86 288.99 376.41C282.32 376.97 273.15 378.08 269.81 378.08C266.47 378.08 258.69 375.02 258.69 375.02C258.69 375.02 252.85 359.99 250.62 355.55C248.39 351.11 240.9 333.6 235.34 326.66C229.78 319.72 223.94 308.59 223.66 302.75C223.38 296.91 227.27 284.96 239.23 281.35C251.18 277.74 320.4 265.51 324.01 265.23C327.62 264.95 385.16 296.77 385.16 296.77Z" fill="#4D4F51" stroke="#031F43" stroke-width="2" stroke-miterlimit="10" stroke-linecap="round" stroke-linejoin="round"/>
<path d="M153.4 396.25L222.84 401.31L255.73 392.6L261.08 394L260.79 404.69L225.09 415.09L153.96 409.18L153.4 396.25Z" fill="#A7CCE9" stroke="#031F43" stroke-width="2" stroke-miterlimit="10" stroke-linecap="round" stroke-linejoin="round"/>
<path d="M160.7 458.87C164.318 458.87 167.25 455.937 167.25 452.32C167.25 448.703 164.318 445.77 160.7 445.77C157.083 445.77 154.15 448.703 154.15 452.32C154.15 455.937 157.083 458.87 160.7 458.87Z" fill="white" stroke="#031F43" stroke-width="2" stroke-miterlimit="10" stroke-linecap="round" stroke-linejoin="round"/>
<path d="M163.7 458.87C167.318 458.87 170.25 455.937 170.25 452.32C170.25 448.703 167.318 445.77 163.7 445.77C160.083 445.77 157.15 448.703 157.15 452.32C157.15 455.937 160.083 458.87 163.7 458.87Z" fill="white" stroke="#031F43" stroke-width="2" stroke-miterlimit="10" stroke-linecap="round" stroke-linejoin="round"/>
<path d="M264.75 457.36C268.368 457.36 271.3 454.427 271.3 450.81C271.3 447.193 268.368 444.26 264.75 444.26C261.133 444.26 258.2 447.193 258.2 450.81C258.2 454.427 261.133 457.36 264.75 457.36Z" fill="white" stroke="#031F43" stroke-width="2" stroke-miterlimit="10" stroke-linecap="round" stroke-linejoin="round"/>
<path d="M267.76 457.36C271.377 457.36 274.31 454.427 274.31 450.81C274.31 447.193 271.377 444.26 267.76 444.26C264.143 444.26 261.21 447.193 261.21 450.81C261.21 454.427 264.143 457.36 267.76 457.36Z" fill="white" stroke="#031F43" stroke-width="2" stroke-miterlimit="10" stroke-linecap="round" stroke-linejoin="round"/>
<path d="M157.3 425.12C160.917 425.12 163.85 422.188 163.85 418.57C163.85 414.953 160.917 412.02 157.3 412.02C153.683 412.02 150.75 414.953 150.75 418.57C150.75 422.188 153.683 425.12 157.3 425.12Z" fill="white" stroke="#031F43" stroke-width="2" stroke-miterlimit="10" stroke-linecap="round" stroke-linejoin="round"/>
<path d="M160.311 425.12C163.928 425.12 166.861 422.188 166.861 418.57C166.861 414.953 163.928 412.02 160.311 412.02C156.693 412.02 153.761 414.953 153.761 418.57C153.761 422.188 156.693 425.12 160.311 425.12Z" fill="white" stroke="#031F43" stroke-width="2" stroke-miterlimit="10" stroke-linecap="round" stroke-linejoin="round"/>
<path d="M273.9 393.98C273.9 393.98 276.71 393.34 282.19 397.3" stroke="#031F43" stroke-width="2" stroke-miterlimit="10" stroke-linecap="round" stroke-linejoin="round"/>
<path d="M269.57 398.31C269.57 398.31 272.38 397.67 277.86 401.63" stroke="#031F43" stroke-width="2" stroke-miterlimit="10" stroke-linecap="round" stroke-linejoin="round"/>
<path d="M264.721 402.52C264.721 402.52 267.531 401.88 273.011 405.84" stroke="#031F43" stroke-width="2" stroke-miterlimit="10" stroke-linecap="round" stroke-linejoin="round"/>
<path d="M229.021 284.64H218.061V421.28H229.021V284.64Z" fill="#A7CCE9" stroke="#031F43" stroke-width="2" stroke-miterlimit="10" stroke-linecap="round" stroke-linejoin="round"/>
<path d="M148.9 429.99L221.21 419.88L229.03 421.27L269.51 427.46L269.23 442.64L223.12 433.36L149.18 443.76L148.9 429.99Z" fill="#A7CCE9" stroke="#031F43" stroke-width="2" stroke-miterlimit="10" stroke-linecap="round" stroke-linejoin="round"/>
<path d="M151.991 277.06L149.101 279.9L149.301 288.84H257.291V280.9L250.141 263.82L151.991 277.06Z" fill="#A7CCE9" stroke="#031F43" stroke-width="2" stroke-miterlimit="10" stroke-linecap="round" stroke-linejoin="round"/>
<path d="M248.391 256.83L251.121 276.33L159.821 277.79L151.981 277.06L150.521 256.65L156.171 247.72L161.091 239.52L164.731 242.98C164.731 242.98 177.671 244.44 177.851 243.89C178.031 243.34 180.221 234.96 180.221 234.96L220.861 247.35L222.321 251.18L248.391 256.83Z" fill="#A7CCE9" stroke="#031F43" stroke-width="2" stroke-miterlimit="10" stroke-linecap="round" stroke-linejoin="round"/>
<path d="M222.15 261.57L222.33 251.18L220.87 247.35L180.23 234.96L177.86 243.89L164.74 242.98L163.65 249.36L222.15 261.57Z" fill="#A7CCE9" stroke="#031F43" stroke-width="2" stroke-miterlimit="10" stroke-linecap="round" stroke-linejoin="round"/>
<path d="M177.77 260.83C181.139 260.83 183.87 258.099 183.87 254.73C183.87 251.361 181.139 248.63 177.77 248.63C174.401 248.63 171.67 251.361 171.67 254.73C171.67 258.099 174.401 260.83 177.77 260.83Z" fill="white" stroke="#031F43" stroke-width="2" stroke-miterlimit="10" stroke-linecap="round" stroke-linejoin="round"/>
<path d="M250.95 276.09L247.66 270.86L150.53 256.65" stroke="#031F43" stroke-width="2" stroke-miterlimit="10" stroke-linecap="round" stroke-linejoin="round"/>
<path d="M164.74 242.98L153.99 229.86L160.92 221.66L177.6 240.65" stroke="#031F43" stroke-width="2" stroke-miterlimit="10" stroke-linecap="round" stroke-linejoin="round"/>
<path d="M179.321 237.51L173.381 235.86" stroke="#031F43" stroke-width="2" stroke-miterlimit="10" stroke-linecap="round" stroke-linejoin="round"/>
<path d="M257.45 254.78C257.1 254.78 250.99 257.48 251.58 260.18C252.17 262.88 256.28 261.82 258.74 260.88C261.21 259.94 264.61 257.83 264.61 257.83L257.45 254.78Z" fill="white" stroke="black" stroke-width="2" stroke-miterlimit="10" stroke-linecap="round" stroke-linejoin="round"/>
<path d="M285.451 249.21C285.451 249.21 274.951 247.05 272.011 247.2C269.081 247.35 254.711 245.19 252.861 245.5C251.011 245.81 243.591 245.96 240.811 247.82C238.031 249.67 233.551 256.01 233.401 256.62C233.251 257.24 233.861 258.32 233.861 258.32C233.861 258.32 234.321 261.56 235.101 262.03C235.871 262.49 239.891 258.79 242.821 256.93C245.751 255.08 251.931 255.39 253.791 255.54C255.641 255.69 263.911 260.18 268.841 260.3C273.771 260.42 282.231 259.6 284.341 259.13C286.461 258.66 285.451 249.21 285.451 249.21Z" fill="white" stroke="black" stroke-width="2" stroke-miterlimit="10" stroke-linecap="round" stroke-linejoin="round"/>
<path d="M233.87 258.32C233.87 258.32 241.01 251.49 245 250.32C248.99 249.15 250.99 248.91 250.99 248.91" stroke="black" stroke-width="2" stroke-miterlimit="10" stroke-linecap="round" stroke-linejoin="round"/>
<path d="M278.66 238.55C278.66 238.55 264.95 240.03 261.79 238.88C258.63 237.73 252.59 235.43 250.44 235.86C248.28 236.29 236.5 240.6 235.35 241.32C234.2 242.04 233.05 248.36 232.76 250.09C232.47 251.81 234.34 253.68 234.34 253.68" stroke="black" stroke-width="2" stroke-miterlimit="10" stroke-linecap="round" stroke-linejoin="round"/>
<path d="M235.2 252.39C235.2 252.39 238.51 244.34 239.94 243.19C241.38 242.04 243.82 241.47 243.82 241.47" stroke="black" stroke-width="2" stroke-miterlimit="10" stroke-linecap="round" stroke-linejoin="round"/>
<path d="M283.72 237.43L278.66 238.55C278.66 238.55 284.68 245.96 284.99 247.97C285.3 249.98 294.57 248.28 294.57 248.28L283.72 237.43Z" fill="white" stroke="#031F43" stroke-width="2" stroke-miterlimit="10" stroke-linecap="round" stroke-linejoin="round"/>
<path d="M284.391 245.23C284.391 245.23 282.981 248.13 282.671 252.92C282.361 257.71 282.821 263.42 282.821 263.42C282.821 263.42 290.081 267.28 292.701 267.59C295.331 267.9 294.511 246.37 294.511 246.37L284.391 245.23Z" fill="white" stroke="#031F43" stroke-width="2" stroke-miterlimit="10" stroke-linecap="round" stroke-linejoin="round"/>
<path d="M318.791 225.89L283.721 237.43C283.721 237.43 290.961 245.8 291.411 248.97C291.861 252.14 302.271 253.04 308.381 250.55C314.491 248.06 324.441 244.21 324.441 244.21L318.791 225.89Z" fill="#236BF6" stroke="#031F43" stroke-width="2" stroke-miterlimit="10" stroke-linecap="round" stroke-linejoin="round"/>
<path d="M337.57 146.25C337.57 146.25 333.5 151.23 332.37 160.5C331.24 169.78 324.45 182.67 322.19 193.31C319.93 203.94 316.53 223.18 316.08 231.55C315.63 239.92 314.5 264.13 314.5 264.13C314.5 264.13 328.98 275.67 335.54 282.23C342.1 288.79 347.76 294.22 359.07 297.84C370.38 301.46 378.08 303.72 386.67 301.23C395.27 298.74 403.64 291.27 403.64 291.27C403.64 291.27 401.6 245.57 399.79 228.37C397.98 211.17 397.53 171.81 394.81 160.49C392.09 149.18 384.85 134.47 379.65 128.81C374.45 123.15 373.54 122.93 370.83 122.25C368.12 121.58 337.57 146.25 337.57 146.25Z" fill="#236BF6"/>
<path d="M326 93.0999C329.844 93.0999 332.96 89.9838 332.96 86.1399C332.96 82.296 329.844 79.1799 326 79.1799C322.156 79.1799 319.04 82.296 319.04 86.1399C319.04 89.9838 322.156 93.0999 326 93.0999Z" stroke="#031F43" stroke-width="2" stroke-miterlimit="10" stroke-linecap="round" stroke-linejoin="round"/>
<path d="M347.13 93.0999C350.974 93.0999 354.09 89.9838 354.09 86.1399C354.09 82.296 350.974 79.1799 347.13 79.1799C343.286 79.1799 340.17 82.296 340.17 86.1399C340.17 89.9838 343.286 93.0999 347.13 93.0999Z" stroke="#031F43" stroke-width="2" stroke-miterlimit="10" stroke-linecap="round" stroke-linejoin="round"/>
<path d="M333.04 84.71H340.17" stroke="#031F43" stroke-width="2" stroke-miterlimit="10" stroke-linecap="round" stroke-linejoin="round"/>
<path d="M354 83.87C354.08 83.62 362.42 79.24 362.42 79.24" stroke="#031F43" stroke-width="2" stroke-miterlimit="10" stroke-linecap="round" stroke-linejoin="round"/>
<path d="M327.861 85.88C328.44 85.88 328.911 85.4099 328.911 84.83C328.911 84.2501 328.44 83.78 327.861 83.78C327.281 83.78 326.811 84.2501 326.811 84.83C326.811 85.4099 327.281 85.88 327.861 85.88Z" stroke="#031F43" stroke-width="2" stroke-miterlimit="10" stroke-linecap="round" stroke-linejoin="round"/>
<path d="M348.191 85.88C348.771 85.88 349.241 85.4099 349.241 84.83C349.241 84.2501 348.771 83.78 348.191 83.78C347.611 83.78 347.141 84.2501 347.141 84.83C347.141 85.4099 347.611 85.88 348.191 85.88Z" stroke="#031F43" stroke-width="2" stroke-miterlimit="10" stroke-linecap="round" stroke-linejoin="round"/>
<path d="M334.051 95.0598C334.051 95.0598 337.001 96.2398 339.191 95.3098" stroke="#031F43" stroke-width="2" stroke-miterlimit="10" stroke-linecap="round" stroke-linejoin="round"/>
<path d="M333.98 105.12L345.38 100.03C345.38 100.03 345.9 104.68 342.84 106.65C337.44 110.11 333.98 105.12 333.98 105.12Z" stroke="#031F43" stroke-width="2" stroke-miterlimit="10" stroke-linecap="round" stroke-linejoin="round"/>
<path d="M323.771 77.13C323.771 77.13 327.981 75.19 330.251 76.29" stroke="#031F43" stroke-width="2" stroke-miterlimit="10" stroke-linecap="round" stroke-linejoin="round"/>
<path d="M342.631 74.5199C342.631 74.5199 346.841 72.5799 349.111 73.6799" stroke="#031F43" stroke-width="2" stroke-miterlimit="10" stroke-linecap="round" stroke-linejoin="round"/>
<path d="M361.15 95.9C361.15 95.9 356.07 117.22 342.87 119.05C333.97 120.28 323.38 112.92 318.69 93.31C314.83 77.16 319 65.54 335.05 63.51C351.09 61.48 360.84 69.91 362.06 75.39C363.28 80.87 362.29 83.42 362.29 83.42C362.29 83.42 364.81 81.79 367.75 84.73C370.69 87.67 365.31 95.39 365.31 95.39L364.8 111.03" stroke="#031F43" stroke-width="2" stroke-miterlimit="10" stroke-linecap="round" stroke-linejoin="round"/>
<path d="M337.801 119.24L338.611 140.88" stroke="#031F43" stroke-width="2" stroke-miterlimit="10" stroke-linecap="round" stroke-linejoin="round"/>
<path d="M365.37 85.1499C362.53 85.6499 359.78 83.8699 359.09 81.0699C358.43 78.3999 357.59 75.2699 356.81 73.3299C355.23 69.3899 351.6 69.0699 341.19 70.1699C330.78 71.2699 321.21 70.6599 319.35 76.8999C318.55 79.5799 319.46 96.2699 319.46 96.2699C319.46 96.2699 316.18 88.8699 314.76 81.6099C313.34 74.3499 314.66 71.7799 314.66 68.2899C314.66 67.9999 312.17 66.1099 310.81 62.1599C309.32 57.8099 308.95 51.3599 308.95 51.3599C308.95 51.3599 316.27 55.9799 326.99 53.1399C328.32 52.7899 329.97 52.3299 331.83 51.8799C341.1 49.6499 355.79 47.5999 364.06 59.2899C372.74 71.5499 367.75 84.7299 367.75 84.7299L365.37 85.1499Z" fill="black"/>
<path d="M367.421 115.96C367.421 115.48 366.301 110.19 366.301 110.19L333.761 143.69C333.761 143.69 341.131 158.6 340.971 158.12C340.821 157.64 367.421 115.96 367.421 115.96Z" fill="#FFEC00" stroke="#031F43" stroke-width="2" stroke-miterlimit="10" stroke-linecap="round" stroke-linejoin="round"/>
<path d="M367.42 115.96L373.67 123.97C373.67 123.97 365.5 130.06 358.12 141.12C350.75 152.18 339.21 172.22 336.8 179.27C334.39 186.32 332.79 190.81 332.79 190.81C332.79 190.81 338.72 164.2 342.57 151.54C346.43 138.89 367.42 115.96 367.42 115.96Z" fill="#236BF6" stroke="#031F43" stroke-width="2" stroke-miterlimit="10" stroke-linecap="round" stroke-linejoin="round"/>
<path d="M386.551 191.81C386.551 191.81 384.151 195.4 381.591 202.59C379.021 209.78 354.051 257.85 350.111 260.24C346.171 262.63 292.631 271.19 292.631 271.19C292.631 271.19 289.211 263.83 288.351 257.85C287.491 251.87 290.231 245.36 290.231 245.36C290.231 245.36 324.671 239.24 328.291 236.3C331.911 233.36 336.661 229.96 336.891 228.61C337.121 227.25 341.421 209.6 342.321 202.82C343.231 196.03 345.941 182.23 347.521 175.9C349.101 169.56 354.531 161.19 355.671 159.61" fill="#236BF6"/>
<path d="M386.551 191.81C386.551 191.81 384.151 195.4 381.591 202.59C379.021 209.78 354.051 257.85 350.111 260.24C346.171 262.63 292.631 271.19 292.631 271.19C292.631 271.19 289.211 263.83 288.351 257.85C287.491 251.87 290.231 245.36 290.231 245.36C290.231 245.36 324.671 239.24 328.291 236.3C331.911 233.36 336.661 229.96 336.891 228.61C337.121 227.25 341.421 209.6 342.321 202.82C343.231 196.03 345.941 182.23 347.521 175.9C349.101 169.56 354.531 161.19 355.671 159.61" stroke="#031F43" stroke-width="2" stroke-miterlimit="10" stroke-linecap="round" stroke-linejoin="round"/>
<path d="M269.53 314.43C269.53 314.43 262.8 311.02 262.03 306.57" stroke="#031F43" stroke-width="2" stroke-miterlimit="10" stroke-linecap="round"/>
</svg>
