<svg xmlns="http://www.w3.org/2000/svg" xmlns:xlink="http://www.w3.org/1999/xlink" viewBox="0,0,256,256" width="48px" height="48px" fill-rule="nonzero"><g transform=""><g fill="#236bf6" fill-rule="nonzero" stroke="none" stroke-width="1" stroke-linecap="butt" stroke-linejoin="miter" stroke-miterlimit="10" stroke-dasharray="" stroke-dashoffset="0" font-family="none" font-weight="none" font-size="none" text-anchor="none" style="mix-blend-mode: normal"><g transform="scale(4,4)"><path d="M32,10c-12.15,0 -22,9.85 -22,22c0,12.15 9.85,22 22,22c12.15,0 22,-9.85 22,-22c0,-12.15 -9.85,-22 -22,-22zM32,14c9.941,0 18,8.059 18,18c0,9.941 -8.059,18 -18,18c-9.941,0 -18,-8.059 -18,-18c0,-9.941 8.059,-18 18,-18zM40.96289,22.39844c-0.6421,0.01225 -1.26625,0.33336 -1.64062,0.91211l-9.70898,14.98633l-5.10937,-5.81055c-0.729,-0.828 -1.99522,-0.90969 -2.82422,-0.17969c-0.829,0.73 -0.91064,1.99422 -0.18164,2.82422l6.85547,7.79102c0.382,0.433 0.92995,0.67773 1.50195,0.67773c0.048,0 0.09748,-0.00091 0.14648,-0.00391c0.625,-0.046 1.19025,-0.3832 1.53125,-0.9082l11.14648,-17.20117c0.6,-0.927 0.3352,-2.16463 -0.5918,-2.76562c-0.34875,-0.225 -0.73974,-0.32961 -1.125,-0.32227z"></path></g></g></g></svg>